# File generated by ImageToStl.com - Free Image and 3D model conversion tools

mtllib Five Intersecting Tetrahedron.mtl

o obj1
v 28.15275764 -29.11442947 57.26624298
v 28.44964027 -29.33012772 57.03944778
v -11.43945312 -22.32383347 87.51200104
v -11.82807541 -22.39048767 87.80888367
v 45.59771347 -37.45880508 43.93948364
v -30.02264977 -24.48889732 101.70830536
v 28.50035286 -29.17404747 57.00070572
v 43.75600052 -31.79059601 45.34642792
v -27.042696 -19.64766884 99.4318161
v -11.78704739 -22.26421738 87.77754211
v 37.79609299 -13.44788361 49.89939117
v 38.04965973 -13.79688835 49.89939117
v 22.67321396 33.09555054 61.4522438
v 22.63817215 33.55240631 61.63572693
v 49.01243973 -33.95565796 47.62290955
v 20.12802887 54.94141006 69.68863678
v 37.92886353 -13.85650539 49.797966
v 16.71330452 51.43826294 66.00521088
v 22.54044342 33.50417328 61.55366898
v -16.79536057 -6.85021305 19.12255669
v -16.77000427 -6.83178997 18.98978806
v -33.42660904 0 11.91981697
v -33.86138153 1.33808279 5.95990849
v 48.57766724 -32.6175766 41.66300201
v 27.1560936 -24.91761017 37.97957611
v 27.12475204 -24.940382 38.1436882
v -16.4164238 -7.00629282 19.28666878
v 26.74581528 -24.78430367 37.97957611
v -38.68304825 2.16506362 9.64333439
v -37.79609299 -13.44788361 61.4522438
v -31.86436272 -18.82068825 103.115242
v -38.03627396 -13.83808327 61.63572693
v -34.40954971 -25 111.35163879
v 14.87159252 57.10647583 67.41215515
v -14.01281643 29.11442947 31.20648575
v -14.04785919 29.22227859 30.7261219
v -42.53253937 0 0
v -3.86690879 24.78430367 87.51200104
v -3.59168458 25.06665421 87.80888367
v 21.26626968 65.45085144 68.81909943
v -13.94273281 29.33012772 30.83952141
v -7.32353783 36.12072372 37.97957611
v -7.28479624 36.12072372 38.1436882
v -7.21841145 36.22857285 38.09297562
v -38.90581512 -11.16191673 49.71590805
v -38.82974243 -11.08387756 49.797966
v -38.89242935 -11.20311165 49.89939117
v -38.04965973 -13.79688835 61.4522438
v -9.55159283 15.38419533 92.36184692
v -9.56127834 15.41400433 92.2290802
v -9.45985222 15.53323841 92.29176331
v -3.68342614 24.91761017 87.87896729
v -28.41829681 -15.41400433 80.57479858
v -28.54138184 -15.38419533 80.62551117
v -32.20314789 -4.19681883 30.83952141
v -32.05101013 -4.23366451 30.77683449
v -28.44964027 -15.31754208 80.14514923
v -32.01966858 -4.33012724 31.20648575
v -17.39936066 -3.98112202 92.06496429
v -17.69624329 -4.19681883 92.29176331
v 7.06997061 35.77171707 73.37206268
v 7.21841145 36.22857285 73.25865936
v -17.61418724 -4.33012724 92.2290802
v 7.28479624 36.12072372 73.20794678
v -22.37633324 11.33642006 23.83963394
v -22.55981445 11.20311165 23.47266769
v 5.66302729 40.10184479 54.085392
v 5.95990849 40.45085144 54.26887512
v 19.69326019 56.27949524 63.72872543
v -22.62249947 11.08387756 23.57409477
v 5.90919495 40.35438538 54.35092926
v -11.66625023 -22.32383347 87.87896729
v 28.59807968 -29.22227859 57.08276367
v -26.60792732 -20.98575211 105.39173126
v -16.78339005 -7.00629282 19.05987167
v -36.8413353 -3.50314641 8.23639107
v 27.13443756 -25.06665421 38.09297562
v -38.48214722 -11.33642006 49.89939117
v -37.92886353 -13.85650539 61.55366898
v 5.81146765 -31.89844513 80.62551117
v 5.77642584 -31.79059601 80.14514923
v 15.33770466 -33.50417328 73.20794678
v 15.45480251 -33.55240631 73.25865936
v 55.6758194 -40.45085144 42.53253937
v 11.82807541 -22.39048767 23.54275322
v 11.43945312 -22.32383347 23.83963394
v 1.32488751 -18.09016991 19.12255669
v 1.31520212 -18.06036186 18.98978806
v 1.47702777 -18.12701607 19.05987167
v 11.66625023 -22.32383347 23.47266769
v 15.3063612 -33.52694702 73.37206268
v 5.95990849 -31.92390442 80.51211548
v -28.51972389 -15.53323841 80.51211548
v -32.13306427 -4.33012724 30.7261219
v 7.32353783 36.12072372 73.37206268
v -17.58284378 -4.33012724 92.36184692
v -7.06997061 35.77171707 37.97957611
v -13.93076038 29.17404747 30.77683449
v 1.59042645 -17.77800941 19.28666878
v 11.78704739 -22.26421738 23.57409477
v 40.31275558 6.83178997 54.26887512
v 39.88909149 7.00629282 54.085392
v 36.5532608 18.09016991 57.00070572
v 36.62932968 18.16820908 57.08276367
v 36.68603134 17.99370766 57.03944778
v 40.25605774 7.00629282 54.31218719
v 5.77642584 40.45085144 54.31218719
v -22.72991371 11.16191673 23.54275322
v -9.16297054 15.31754208 92.06496429
v -3.55065656 24.940382 87.77754211
v 36.38914871 17.77800941 57.26624298
v 40.20534515 6.85021305 54.35092926
v 15.3063612 -33.09555054 73.37206268
v 5.87785244 -31.79059601 80.57479858
v 22.67321396 33.52694702 61.4522438
v 38.03627396 -13.83808327 49.71590805
v -1.47702777 -18.12701607 92.29176331
v -1.32488751 -18.09016991 92.2290802
v 36.8413353 -3.50314641 103.115242
v -1.31520212 -18.06036186 92.36184692
v 42.53253937 -0 111.35163879
v 38.90581512 -11.16191673 61.63572693
v 38.48214722 -11.33642006 61.4522438
v 30.02264977 -24.48889732 9.64333439
v 34.40954971 -25 0
v -5.81146765 -31.89844513 30.7261219
v -5.77642584 -31.79059601 31.20648575
v -45.59771347 -37.45880508 67.41215515
v -15.33770466 -33.50417328 38.1436882
v -15.45480251 -33.55240631 38.09297562
v -55.6758194 -40.45085144 68.81909943
v -15.3063612 -33.52694702 37.97957611
v -5.95990849 -31.92390442 30.83952141
v 38.89242935 -11.20311165 61.4522438
v 59.61053085 -1.33808279 63.72872543
v 18.98978806 -35.77171707 54.085392
v -16.00983429 -56.27949524 41.66300201
v 18.95474625 -36.22857285 54.26887512
v -21.26626968 -65.45085144 42.53253937
v -9.19114971 32.6175766 5.95990849
v 31.83618355 17.77800941 37.97957611
v 32.22480774 18.06036186 38.09297562
v 68.81909943 -0 68.81909943
v -13.14327812 40.45085144 0
v 19.10318565 -36.12072372 54.31218719
v -17.63954353 -18.16820908 23.54275322
v -17.5321312 -18.09016991 23.57409477
v -17.62615776 -17.99370766 23.47266769
v 23.45101166 22.39048767 30.7261219
v 23.44132614 22.26421738 30.77683449
v 23.5860672 22.32383347 30.83952141
v 32.0897522 18.12701607 37.97957611
v 32.56783676 20.98575211 9.64333439
v 14.71628857 33.95565796 103.115242
v 13.14327812 40.45085144 111.35163879
v 21.53497314 -54.94141006 67.41215515
v 28.44964027 -15.31754208 31.20648575
v 28.54138184 -15.38419533 30.7261219
v 34.40954971 25 0
v 17.69624329 -17.77800941 87.51200104
v 17.63954353 -18.16820908 87.80888367
v 21.26626968 -65.45085144 68.81909943
v 24.87961197 31.92390442 49.89939117
v 24.898983 31.79059601 49.797966
v 24.91465378 31.89844513 49.71590805
v 16.77000427 -6.83178997 92.36184692
v 16.79536057 -6.85021305 92.2290802
v 16.78339005 -7.00629282 92.29176331
v 17.62615776 -17.99370766 87.87896729
v 28.51972389 -15.53323841 30.83952141
v -10.32939053 31.79059601 11.91981697
v -14.71628857 33.95565796 8.23639107
v -32.56783676 20.98575211 101.70830536
v -23.5860672 22.32383347 80.51211548
v -23.44132614 22.26421738 80.57479858
v -23.3592701 22.32383347 80.14514923
v -27.042696 19.64766884 99.4318161
v 36.20566559 4.33012724 73.37206268
v 36.68603134 4.33012724 73.25865936
v 58.90705872 3.50314641 67.41215515
v 54.085392 -0 66.00521088
v -27.74616814 24.48889732 103.115242
v 36.60397339 4.23366451 73.20794678
v -43.75600052 -31.79059601 66.00521088
v -48.57766724 -32.6175766 69.68863678
v -19.69326019 56.27949524 47.62290955
v -22.67321396 33.52694702 49.89939117
v -22.54044342 33.50417328 49.797966
v -22.67321396 33.09555054 49.89939117
v -16.71330452 51.43826294 45.34642792
v 1.11006212 -40.10184479 61.4522438
v 1.40694356 -40.45085144 61.63572693
v -59.61053085 -1.33808279 47.62290955
v 16.00983429 -56.27949524 69.68863678
v -54.085392 0 45.34642792
v 16.71330452 -51.43826294 66.00521088
v 1.45765698 -40.35438538 61.55366898
v 17.39936066 -3.98112202 19.28666878
v 17.58284378 -4.33012724 18.98978806
v -20.12802887 54.94141006 41.66300201
v 26.60792732 -20.98575211 5.95990849
v 27.042696 -19.64766884 11.91981697
v 17.61418724 -4.33012724 19.12255669
v 10.32939053 31.79059601 99.4318161
v 9.8946209 37.45880508 101.70830536
v -58.90705872 3.50314641 43.93948364
v -40.25605774 7.00629282 57.03944778
v -40.20534515 6.85021305 57.00070572
v -39.88909149 7.00629282 57.26624298
v 49.71590805 31.79059601 43.93948364
v 43.75600052 31.79059601 45.34642792
v -10.32939053 -31.79059601 11.91981697
v -8.05290794 -36.12072372 8.23639107
v 32.10172272 18.09016991 38.1436882
v 11.73633385 13.44788361 92.06496429
v 11.67963505 13.83808327 92.36184692
v 9.19114971 32.6175766 105.39173126
v 11.70499134 13.85650539 92.2290802
v 10.32939053 -31.79059601 99.4318161
v 8.05290794 -36.12072372 103.115242
v -14.01281643 -36.12072372 9.64333439
v -5.87785244 -31.79059601 30.77683449
v -28.44964027 -29.33012772 54.31218719
v -28.50035286 -29.17404747 54.35092926
v -28.15275764 -29.11442947 54.085392
v -17.69624329 -17.77800941 23.83963394
v -21.53497314 -54.94141006 43.93948364
v -22.63817215 33.55240631 49.71590805
v -34.40954971 25 111.35163879
v -27.13443756 -25.06665421 73.25865936
v -27.12475204 -24.940382 73.20794678
v -27.1560936 -24.91761017 73.37206268
v -24.91465378 31.89844513 61.63572693
v -24.898983 31.79059601 61.55366898
v -24.87961197 31.92390442 61.4522438
v 13.14327812 -40.45085144 111.35163879
v -49.71590805 31.79059601 67.41215515
v -13.14327812 -40.45085144 0
v -24.76621437 3.98112202 87.51200104
v -24.94969559 4.33012724 87.80888367
v -55.6758194 40.45085144 68.81909943
v -36.61594772 4.19681883 37.97957611
v -36.60397339 4.23366451 38.1436882
v -36.68603134 4.33012724 38.09297562
v -1.40694356 -40.45085144 49.71590805
v -1.45765698 -40.35438538 49.797966
v -1.3636291 -40.45085144 49.89939117
v 1.3636291 -40.45085144 61.4522438
v -24.83629799 4.19681883 87.87896729
v 3.68342614 24.91761017 23.47266769
v 3.55065656 24.940382 23.57409477
v 3.86690879 24.78430367 23.83963394
v 14.01281643 -36.12072372 101.70830536
v 17.5321312 -18.09016991 87.77754211
v 17.1480751 -57.10647583 63.72872543
v -58.47229004 -2.16506362 41.66300201
v -28.59807968 -29.22227859 54.26887512
v -68.81909943 0 42.53253937
v 28.18093681 18.82068825 5.95990849
v -11.73633385 13.44788361 19.28666878
v -11.67963505 13.83808327 18.98978806
v 28.41829681 -15.41400433 30.77683449
v -18.95474625 -36.22857285 57.08276367
v -18.93907356 -36.12072372 57.00070572
v -19.10318565 -36.12072372 57.03944778
v -11.84973335 13.79688835 19.05987167
v 11.73633385 -31.79059601 105.39173126
v 47.43942642 36.12072372 47.62290955
v 55.6758194 40.45085144 42.53253937
v -46.03248215 36.12072372 69.68863678
v -5.66302729 40.10184479 57.26624298
v -5.95990849 40.45085144 57.08276367
v -24.81692696 4.33012724 87.77754211
v 32.13306427 -4.33012724 80.62551117
v 32.05101013 -4.23366451 80.57479858
v 32.20314789 -4.19681883 80.51211548
v 36.61594772 4.19681883 73.37206268
v -5.77642584 40.45085144 57.03944778
v -18.98978806 -35.77171707 57.26624298
v -28.18093681 18.82068825 105.39173126
v -17.1480751 -57.10647583 47.62290955
v -16.71330452 -51.43826294 45.34642792
v -1.11006212 -40.10184479 49.89939117
v 58.47229004 -2.16506362 69.68863678
v 38.82974243 -11.08387756 61.55366898
v -15.3063612 -33.09555054 37.97957611
v -11.70499134 13.85650539 19.12255669
v -9.8946209 37.45880508 9.64333439
v -24.46933174 31.79059601 61.4522438
v 23.3592701 22.32383347 31.20648575
v 22.37633324 11.33642006 87.51200104
v 22.72991371 11.16191673 87.80888367
v 11.84973335 13.79688835 92.29176331
v 22.55981445 11.20311165 87.87896729
v -23.45101166 22.39048767 80.62551117
v 3.59168458 25.06665421 23.54275322
v 18.93907356 -36.12072372 54.35092926
v -26.74581528 -24.78430367 73.37206268
v 22.62249947 11.08387756 87.77754211
v -43.75600052 31.79059601 66.00521088
v 24.46933174 31.79059601 49.89939117
v 46.03248215 36.12072372 41.66300201
v -11.73633385 -31.79059601 5.95990849
v 33.42660904 -0 99.4318161
v 38.68304825 2.16506362 101.70830536
v -14.87159252 57.10647583 43.93948364
v -5.90919495 40.35438538 57.00070572
v 27.042696 19.64766884 11.91981697
v 27.74616814 24.48889732 8.23639107
v 13.94273281 29.33012772 80.51211548
v 13.93076038 29.17404747 80.57479858
v 14.01281643 29.11442947 80.14514923
v -36.68603134 17.99370766 54.31218719
v -36.5532608 18.09016991 54.35092926
v -36.38914871 17.77800941 54.085392
v 16.4164238 -7.00629282 92.06496429
v 33.86138153 1.33808279 105.39173126
v -32.10172272 18.09016991 73.20794678
v -32.22480774 18.06036186 73.25865936
v -32.0897522 18.12701607 73.37206268
v 24.83629799 4.19681883 23.47266769
v 24.81692696 4.33012724 23.57409477
v 24.76621437 3.98112202 23.83963394
v -49.01243973 -33.95565796 63.72872543
v -36.62932968 18.16820908 54.26887512
v -21.26626968 65.45085144 42.53253937
v 9.16297054 15.31754208 19.28666878
v 9.55159283 15.38419533 18.98978806
v -40.31275558 6.83178997 57.08276367
v 9.45985222 15.53323841 19.05987167
v -31.83618355 17.77800941 73.37206268
v -1.59042645 -17.77800941 92.06496429
v -36.20566559 4.33012724 37.97957611
v 24.94969559 4.33012724 23.54275322
v -47.43942642 36.12072372 63.72872543
v 17.69624329 -4.19681883 19.05987167
v 32.01966858 -4.33012724 80.14514923
v 9.56127834 15.41400433 19.12255669
v 31.86436272 -18.82068825 8.23639107
v 14.04785919 29.22227859 80.62551117
vn -0.60706 0 -0.79465
vn -0.60706 0 -0.79465
vn -0.60706 -0 -0.79465
vn -0.60706 0 -0.79465
vn -0.60706 0 -0.79465
vn -0.60706 -0 -0.79465
vn -0.60706 -0 -0.79465
vn -0.60706 0 -0.79465
vn -0.49112 -0.35682 0.79465
vn 0.30353 0.93417 0.18759
vn -0.79465 0.57735 0.18759
vn -0.60706 0 -0.79465
vn -0.60706 0 -0.79465
vn -0.60706 -0 -0.79465
vn -0.60706 -0 -0.79465
vn -0.60706 0 -0.79465
vn -0.60706 0 -0.79465
vn -0.60706 -0 -0.79465
vn -0.60706 0 -0.79465
vn 0.79465 -0.57735 -0.18759
vn -0.30353 -0.93417 -0.18759
vn 0.49112 0.35682 -0.79465
vn 0.60706 0 0.79465
vn 0.60706 -0 0.79465
vn 0.60706 -0 0.79465
vn 0.60706 0 0.79465
vn 0.60706 -0 0.79465
vn 0.60706 -0 0.79465
vn 0.60706 0 0.79465
vn 0.60706 -0 0.79465
vn 0.60706 -0 0.79465
vn 0.60706 0 0.79465
vn 0.60706 0 0.79465
vn 0.60706 -0 0.79465
vn 0.60706 -0 0.79465
vn 0.60706 -0 0.79465
vn 0.60706 -0 0.79465
vn 0.60706 -0 0.79465
vn 0.60706 -0 0.79465
vn 0.60706 0 0.79465
vn 0.60706 -0 0.79465
vn 0.60706 -0 0.79465
vn 0.60706 0 0.79465
vn 0.60706 0 0.79465
vn 0.60706 0 0.79465
vn 0.60706 0 0.79465
vn -0.60706 -0 -0.79465
vn -0.60706 0 -0.79465
vn -0.60706 0 -0.79465
vn -0.60706 0 -0.79465
vn -0.60706 0 -0.79465
vn -0.60706 -0 -0.79465
vn -0.60706 -0 -0.79465
vn -0.60706 0 -0.79465
vn 0.30353 -0.93417 0.18759
vn 0.49112 -0.35682 -0.79465
vn 0.98225 0 0.18759
vn 0.98225 -0 0.18759
vn 0.98225 -0 0.18759
vn 0.98225 -0 0.18759
vn 0.98225 0 0.18759
vn 0.98225 -0 0.18759
vn 0.98225 -0 0.18759
vn 0.98225 0 0.18759
vn 0.98225 -0 0.18759
vn 0.98225 -0 0.18759
vn 0.98225 -0 0.18759
vn 0.98225 0 0.18759
vn 0.98225 -0 0.18759
vn 0.98225 0 0.18759
vn 0.98225 -0 0.18759
vn 0.98225 0 0.18759
vn 0.98225 -0 0.18759
vn 0.98225 0 0.18759
vn 0.98225 0 0.18759
vn 0.98225 -0 0.18759
vn 0.98225 0 0.18759
vn 0.98225 -0 0.18759
vn 0.98225 0 0.18759
vn 0.98225 0 0.18759
vn -0.18759 0.57735 -0.79465
vn 0.60706 -0 0.79465
vn 0.60706 -0 0.79465
vn 0.60706 0 0.79465
vn 0.60706 -0 0.79465
vn 0.60706 -0 0.79465
vn 0.60706 -0 0.79465
vn 0.60706 -0 0.79465
vn 0.60706 -0 0.79465
vn 0.18759 0.57735 0.79465
vn -0.79465 -0.57735 0.18759
vn 0.18759 -0.57735 0.79465
vn -0.98225 0 -0.18759
vn -0.98225 0 -0.18759
vn -0.98225 0 -0.18759
vn -0.98225 0 -0.18759
vn -0.98225 0 -0.18759
vn -0.98225 0 -0.18759
vn -0.98225 0 -0.18759
vn -0.98225 0 -0.18759
vn 0.60706 0 0.79465
vn 0.60706 -0 0.79465
vn 0.60706 -0 0.79465
vn 0.60706 -0 0.79465
vn 0.60706 0 0.79465
vn 0.60706 -0 0.79465
vn 0.60706 0 0.79465
vn 0.60706 -0 0.79465
vn -0.98225 0 -0.18759
vn -0.98225 0 -0.18759
vn -0.98225 0 -0.18759
vn -0.98225 -0 -0.18759
vn -0.98225 0 -0.18759
vn -0.98225 0 -0.18759
vn -0.98225 0 -0.18759
vn -0.98225 0 -0.18759
vn -0.98225 0 -0.18759
vn -0.98225 0 -0.18759
vn -0.98225 0 -0.18759
vn -0.98225 0 -0.18759
vn -0.98225 0 -0.18759
vn -0.98225 0 -0.18759
vn -0.98225 0 -0.18759
vn -0.98225 0 -0.18759
vn -0.98225 -0 -0.18759
vn -0.98225 0 -0.18759
vn -0.98225 0 -0.18759
vn -0.98225 -0 -0.18759
vn -0.98225 0 -0.18759
vn -0.98225 0 -0.18759
vn -0.98225 -0 -0.18759
vn -0.98225 0 -0.18759
vn -0.18759 -0.57735 -0.79465
vn 0.98225 -0 0.18759
vn 0.98225 -0 0.18759
vn 0.98225 -0 0.18759
vn 0.98225 -0 0.18759
vn 0.98225 -0 0.18759
vn 0.98225 -0 0.18759
vn 0.98225 -0 0.18759
vn 0.98225 -0 0.18759
vn -0.49112 0.35682 0.79465
vn 0.98225 -0 0.18759
vn 0.98225 -0 0.18759
vn 0.98225 -0 0.18759
vn 0.98225 -0 0.18759
vn 0.98225 -0 0.18759
vn 0.98225 -0 0.18759
vn 0.98225 -0 0.18759
vn 0.98225 -0 0.18759
vn 0.98225 0 0.18759
vn 0.98225 -0 0.18759
vn 0.98225 0 0.18759
vn 0.98225 -0 0.18759
vn 0.98225 -0 0.18759
vn 0.98225 -0 0.18759
vn 0.98225 0 0.18759
vn 0.98225 0 0.18759
vn -0.98225 -0 -0.18759
vn -0.98225 0 -0.18759
vn -0.98225 0 -0.18759
vn -0.98225 0 -0.18759
vn -0.98225 -0 -0.18759
vn -0.98225 -0 -0.18759
vn -0.98225 -0 -0.18759
vn -0.98225 0 -0.18759
vn -0.30353 0.93417 -0.18759
vn -0.98225 -0 -0.18759
vn -0.98225 0 -0.18759
vn -0.98225 0 -0.18759
vn -0.98225 0 -0.18759
vn -0.98225 0 -0.18759
vn -0.98225 0 -0.18759
vn -0.98225 -0 -0.18759
vn -0.98225 -0 -0.18759
vn -0.60706 -0 -0.79465
vn -0.60706 -0 -0.79465
vn -0.60706 -0 -0.79465
vn -0.60706 0 -0.79465
vn -0.60706 -0 -0.79465
vn -0.60706 0 -0.79465
vn -0.60706 -0 -0.79465
vn -0.60706 0 -0.79465
vn -0.60706 -0 -0.79465
vn -0.60706 -0 -0.79465
vn -0.60706 -0 -0.79465
vn -0.60706 0 -0.79465
vn -0.60706 -0 -0.79465
vn -0.60706 0 -0.79465
vn -0.60706 -0 -0.79465
vn -0.60706 -0 -0.79465
vn -0.60706 -0 -0.79465
vn -0.60706 -0 -0.79465
vn -0.60706 -0 -0.79465
vn -0.60706 -0 -0.79465
vn -0.60706 0 -0.79465
vn -0.60706 -0 -0.79465
vn -0.60706 0 -0.79465
vn -0.60706 0 -0.79465
vn 0.79465 0.57735 -0.18759
vn 0.60706 -0 0.79465
vn 0.60706 -0 0.79465
vn 0.60706 -0 0.79465
vn 0.60706 -0 0.79465
vn 0.60706 -0 0.79465
vn 0.60706 -0 0.79465
vn 0.60706 -0 0.79465
vn 0.60706 -0 0.79465
usemtl mat2
f 3//2 2//2 4//2
f 4//3 2//3 5//3
f 4//4 5//4 6//4
f 2//5 7//5 5//5
f 5//6 7//6 8//6
f 6//7 9//7 4//7
f 4//8 9//8 10//8
f 11//9 12//9 13//9
f 13//9 12//9 14//9
f 14//9 12//9 15//9
f 14//9 15//9 16//9
f 12//9 17//9 15//9
f 15//9 17//9 8//9
f 16//9 18//9 14//9
f 14//9 18//9 19//9
f 20//10 21//10 22//10
f 22//10 21//10 23//10
f 23//10 21//10 24//10
f 24//10 21//10 25//10
f 24//10 25//10 26//10
f 21//10 27//10 25//10
f 25//10 27//10 28//10
f 26//10 8//10 24//10
f 29//11 30//11 31//11
f 31//11 30//11 32//11
f 31//11 32//11 33//11
f 34//11 35//11 29//11
f 29//11 35//11 36//11
f 29//11 36//11 37//11
f 31//11 38//11 34//11
f 34//11 38//11 39//11
f 34//11 39//11 40//11
f 41//11 35//11 42//11
f 42//11 35//11 43//11
f 43//11 35//11 34//11
f 43//11 34//11 44//11
f 44//11 34//11 40//11
f 37//11 45//11 29//11
f 29//11 45//11 46//11
f 29//11 46//11 30//11
f 30//11 46//11 47//11
f 30//11 47//11 48//11
f 33//11 49//11 31//11
f 31//11 49//11 50//11
f 31//11 50//11 38//11
f 38//11 50//11 51//11
f 38//11 51//11 52//11
f 53//10 54//10 9//10
f 9//10 54//10 31//10
f 31//10 54//10 29//10
f 29//10 54//10 55//10
f 29//10 55//10 56//10
f 54//10 57//10 55//10
f 55//10 57//10 58//10
f 56//10 22//10 29//10
f 59//12 60//12 61//12
f 61//13 60//13 62//13
f 62//14 60//14 34//14
f 62//15 34//15 18//15
f 63//16 9//16 60//16
f 60//17 9//17 31//17
f 60//18 31//18 34//18
f 18//19 64//19 62//19
f 65//20 66//20 67//20
f 67//20 66//20 68//20
f 68//20 66//20 69//20
f 68//20 69//20 18//20
f 70//20 22//20 66//20
f 66//20 22//20 23//20
f 66//20 23//20 69//20
f 18//20 71//20 68//20
f 1//10 72//10 73//10
f 73//10 72//10 74//10
f 73//10 74//10 15//10
f 1//10 3//10 72//10
f 72//10 10//10 74//10
f 74//10 10//10 9//10
f 15//10 8//10 73//10
f 73//10 8//10 7//10
f 20//9 22//9 75//9
f 75//9 22//9 76//9
f 75//9 76//9 5//9
f 75//9 5//9 77//9
f 77//9 5//9 8//9
f 77//9 8//9 26//9
f 77//9 28//9 75//9
f 75//9 28//9 27//9
f 48//21 78//21 79//21
f 79//21 78//21 6//21
f 79//21 6//21 32//21
f 32//21 6//21 33//21
f 33//21 6//21 80//21
f 80//21 6//21 81//21
f 81//21 6//21 5//21
f 81//21 5//21 82//21
f 82//21 5//21 83//21
f 83//21 5//21 84//21
f 84//21 5//21 85//21
f 85//21 5//21 86//21
f 86//21 5//21 76//21
f 86//21 76//21 87//21
f 87//21 76//21 88//21
f 88//21 76//21 37//21
f 37//21 76//21 45//21
f 45//21 76//21 78//21
f 78//21 76//21 6//21
f 48//21 47//21 78//21
f 87//21 89//21 86//21
f 86//21 89//21 90//21
f 82//21 91//21 81//21
f 81//21 91//21 92//21
f 53//20 6//20 93//20
f 93//20 6//20 94//20
f 93//20 94//20 58//20
f 53//20 9//20 6//20
f 6//20 76//20 94//20
f 94//20 76//20 22//20
f 94//20 22//20 56//20
f 58//20 57//20 93//20
f 59//20 95//20 96//20
f 96//20 95//20 74//20
f 96//20 74//20 9//20
f 59//20 61//20 95//20
f 64//20 18//20 95//20
f 95//20 18//20 16//20
f 95//20 16//20 74//20
f 9//20 63//20 96//20
f 41//22 97//22 98//22
f 98//22 97//22 23//22
f 98//22 23//22 36//22
f 36//22 23//22 37//22
f 37//22 23//22 88//22
f 88//22 23//22 99//22
f 99//22 23//22 24//22
f 99//22 24//22 100//22
f 100//22 24//22 85//22
f 85//22 24//22 84//22
f 84//22 24//22 101//22
f 101//22 24//22 102//22
f 102//22 24//22 69//22
f 102//22 69//22 103//22
f 103//22 69//22 104//22
f 104//22 69//22 40//22
f 40//22 69//22 44//22
f 44//22 69//22 97//22
f 97//22 69//22 23//22
f 41//22 42//22 97//22
f 103//22 105//22 102//22
f 102//22 105//22 106//22
f 100//22 90//22 99//22
f 99//22 90//22 89//22
f 65//9 107//9 108//9
f 108//9 107//9 29//9
f 108//9 29//9 22//9
f 65//9 67//9 107//9
f 71//9 18//9 107//9
f 107//9 18//9 34//9
f 107//9 34//9 29//9
f 22//9 70//9 108//9
f 49//23 74//23 109//23
f 109//24 74//24 16//24
f 109//25 16//25 110//25
f 110//26 16//26 39//26
f 39//27 16//27 40//27
f 40//28 16//28 104//28
f 104//29 16//29 111//29
f 111//30 16//30 15//30
f 111//31 15//31 112//31
f 112//32 15//32 101//32
f 101//33 15//33 84//33
f 84//34 15//34 83//34
f 83//35 15//35 113//35
f 113//36 15//36 74//36
f 113//37 74//37 114//37
f 114//38 74//38 80//38
f 80//39 74//39 33//39
f 33//40 74//40 49//40
f 114//41 92//41 113//41
f 113//42 92//42 91//42
f 112//43 106//43 111//43
f 111//44 106//44 105//44
f 110//45 52//45 109//45
f 109//46 52//46 51//46
f 11//47 115//47 116//47
f 116//48 115//48 24//48
f 116//49 24//49 8//49
f 11//50 13//50 115//50
f 19//51 18//51 115//51
f 115//52 18//52 69//52
f 115//53 69//53 24//53
f 8//54 17//54 116//54
f 72//55 3//55 117//55
f 117//55 3//55 118//55
f 118//55 3//55 119//55
f 118//55 119//55 120//55
f 120//55 119//55 121//55
f 121//55 119//55 122//55
f 122//55 119//55 123//55
f 123//55 119//55 124//55
f 123//55 124//55 17//55
f 17//55 124//55 116//55
f 116//55 124//55 125//55
f 125//55 124//55 126//55
f 126//55 124//55 127//55
f 127//55 124//55 128//55
f 127//55 128//55 129//55
f 129//55 128//55 130//55
f 130//55 128//55 131//55
f 131//55 128//55 4//55
f 4//55 128//55 3//55
f 3//55 128//55 119//55
f 129//55 132//55 127//55
f 127//55 132//55 133//55
f 17//55 12//55 123//55
f 123//55 12//55 134//55
f 135//56 136//56 137//56
f 137//56 136//56 138//56
f 137//56 138//56 139//56
f 140//56 141//56 135//56
f 135//56 141//56 142//56
f 135//56 142//56 143//56
f 137//56 27//56 140//56
f 140//56 27//56 21//56
f 140//56 21//56 144//56
f 143//56 73//56 135//56
f 135//56 73//56 7//56
f 135//56 7//56 136//56
f 136//56 7//56 2//56
f 136//56 2//56 145//56
f 139//56 146//56 137//56
f 137//56 146//56 147//56
f 137//56 147//56 27//56
f 27//56 147//56 148//56
f 27//56 148//56 75//56
f 144//56 149//56 140//56
f 140//56 149//56 150//56
f 140//56 150//56 141//56
f 141//56 150//56 151//56
f 141//56 151//56 152//56
f 153//57 13//57 154//57
f 154//58 13//58 14//58
f 154//59 14//59 155//59
f 156//60 157//60 153//60
f 153//61 157//61 158//61
f 153//62 158//62 159//62
f 154//63 160//63 156//63
f 156//64 160//64 161//64
f 156//65 161//65 162//65
f 115//66 13//66 163//66
f 163//67 13//67 164//67
f 164//68 13//68 153//68
f 164//69 153//69 165//69
f 165//70 153//70 159//70
f 155//71 166//71 154//71
f 154//72 166//72 167//72
f 154//73 167//73 160//73
f 160//74 167//74 168//74
f 160//75 168//75 169//75
f 162//76 77//76 156//76
f 156//77 77//77 26//77
f 156//78 26//78 157//78
f 157//79 26//79 25//79
f 157//80 25//80 170//80
f 98//21 36//21 171//21
f 171//21 36//21 172//21
f 172//21 36//21 173//21
f 173//21 36//21 174//21
f 173//21 174//21 175//21
f 36//21 35//21 174//21
f 174//21 35//21 176//21
f 175//21 177//21 173//21
f 109//81 51//81 178//81
f 178//81 51//81 179//81
f 179//81 51//81 180//81
f 179//81 180//81 181//81
f 50//81 177//81 51//81
f 51//81 177//81 182//81
f 51//81 182//81 180//81
f 181//81 183//81 179//81
f 79//82 32//82 184//82
f 184//83 32//83 185//83
f 185//84 32//84 186//84
f 186//85 32//85 187//85
f 186//86 187//86 188//86
f 32//87 30//87 187//87
f 187//88 30//88 189//88
f 188//89 190//89 186//89
f 78//90 47//90 191//90
f 191//90 47//90 192//90
f 192//90 47//90 193//90
f 192//90 193//90 194//90
f 47//90 46//90 193//90
f 193//90 46//90 195//90
f 194//90 196//90 192//90
f 192//90 196//90 197//90
f 97//91 42//91 198//91
f 198//91 42//91 199//91
f 199//91 42//91 200//91
f 199//91 200//91 201//91
f 42//91 43//91 200//91
f 200//91 43//91 190//91
f 201//91 202//91 199//91
f 199//91 202//91 203//91
f 110//22 39//22 204//22
f 204//22 39//22 205//22
f 205//22 39//22 206//22
f 206//22 39//22 207//22
f 206//22 207//22 208//22
f 39//22 38//22 207//22
f 207//22 38//22 209//22
f 208//22 195//22 206//22
f 99//92 89//92 141//92
f 141//92 89//92 142//92
f 142//92 89//92 210//92
f 142//92 210//92 211//92
f 87//92 212//92 89//92
f 89//92 212//92 213//92
f 89//92 213//92 210//92
f 211//92 214//92 142//92
f 113//93 91//93 215//93
f 215//94 91//94 216//94
f 216//95 91//95 217//95
f 216//96 217//96 204//96
f 82//97 196//97 91//97
f 91//98 196//98 194//98
f 91//99 194//99 217//99
f 204//100 218//100 216//100
f 114//11 80//11 219//11
f 219//11 80//11 220//11
f 220//11 80//11 221//11
f 221//11 80//11 133//11
f 221//11 133//11 222//11
f 80//11 81//11 133//11
f 133//11 81//11 127//11
f 222//11 212//11 221//11
f 100//101 85//101 202//101
f 202//102 85//102 124//102
f 124//103 85//103 223//103
f 124//104 223//104 128//104
f 128//105 223//105 184//105
f 184//106 223//106 224//106
f 85//107 86//107 223//107
f 223//108 86//108 225//108
f 172//109 226//109 227//109
f 227//110 226//110 146//110
f 227//111 146//111 139//111
f 173//112 189//112 172//112
f 172//113 189//113 228//113
f 172//114 228//114 144//114
f 227//115 57//115 173//115
f 173//116 57//116 54//116
f 173//117 54//117 229//117
f 144//118 21//118 172//118
f 172//119 21//119 20//119
f 172//120 20//120 226//120
f 226//121 20//121 75//121
f 226//122 75//122 148//122
f 139//123 230//123 227//123
f 227//124 230//124 231//124
f 227//125 231//125 57//125
f 57//126 231//126 232//126
f 57//127 232//127 93//127
f 229//128 233//128 173//128
f 173//129 233//129 234//129
f 173//130 234//130 189//130
f 189//131 234//131 235//131
f 189//132 235//132 187//132
f 221//91 191//91 220//91
f 220//91 191//91 192//91
f 220//91 192//91 236//91
f 237//91 58//91 221//91
f 221//91 58//91 94//91
f 221//91 94//91 238//91
f 220//91 239//91 237//91
f 237//91 239//91 240//91
f 237//91 240//91 241//91
f 55//91 58//91 242//91
f 242//91 58//91 243//91
f 243//91 58//91 237//91
f 243//91 237//91 244//91
f 244//91 237//91 241//91
f 238//91 245//91 221//91
f 221//91 245//91 246//91
f 221//91 246//91 191//91
f 191//91 246//91 247//91
f 191//91 247//91 248//91
f 236//91 96//91 220//91
f 220//91 96//91 63//91
f 220//91 63//91 239//91
f 239//91 63//91 60//91
f 239//91 60//91 249//91
f 112//21 101//21 181//21
f 181//21 101//21 135//21
f 135//21 101//21 250//21
f 135//21 250//21 140//21
f 140//21 250//21 171//21
f 171//21 250//21 251//21
f 101//21 102//21 250//21
f 250//21 102//21 252//21
f 111//133 105//133 160//133
f 160//133 105//133 161//133
f 161//133 105//133 210//133
f 161//133 210//133 253//133
f 105//133 103//133 210//133
f 210//133 103//133 211//133
f 253//133 219//133 161//133
f 161//133 219//133 254//133
f 255//133 225//133 256//133
f 256//133 225//133 257//133
f 256//133 257//133 258//133
f 259//133 28//133 255//133
f 255//133 28//133 77//133
f 255//133 77//133 162//133
f 256//133 260//133 259//133
f 259//133 260//133 261//133
f 259//133 261//133 159//133
f 25//133 28//133 170//133
f 170//133 28//133 262//133
f 262//133 28//133 259//133
f 262//133 259//133 158//133
f 158//133 259//133 159//133
f 162//133 263//133 255//133
f 255//133 263//133 264//133
f 255//133 264//133 225//133
f 225//133 264//133 265//133
f 225//133 265//133 223//133
f 258//133 108//133 256//133
f 256//133 108//133 70//133
f 256//133 70//133 260//133
f 260//133 70//133 66//133
f 260//133 66//133 266//133
f 267//90 178//90 268//90
f 268//90 178//90 179//90
f 268//90 179//90 269//90
f 270//90 59//90 267//90
f 267//90 59//90 96//90
f 267//90 96//90 236//90
f 268//90 271//90 270//90
f 270//90 271//90 272//90
f 270//90 272//90 241//90
f 60//90 59//90 249//90
f 249//90 59//90 273//90
f 273//90 59//90 270//90
f 273//90 270//90 240//90
f 240//90 270//90 241//90
f 236//90 274//90 267//90
f 267//90 274//90 275//90
f 267//90 275//90 178//90
f 178//90 275//90 276//90
f 178//90 276//90 277//90
f 269//90 68//90 268//90
f 268//90 68//90 71//90
f 268//90 71//90 271//90
f 271//90 71//90 107//90
f 271//90 107//90 278//90
f 239//134 249//134 279//134
f 279//135 249//135 263//135
f 263//136 249//136 280//136
f 263//137 280//137 281//137
f 249//138 273//138 280//138
f 280//139 273//139 177//139
f 281//140 282//140 263//140
f 263//141 282//141 264//141
f 283//142 247//142 123//142
f 123//142 247//142 122//142
f 122//142 247//142 281//142
f 122//142 281//142 284//142
f 247//142 246//142 281//142
f 281//142 246//142 282//142
f 284//142 181//142 122//142
f 122//142 181//142 285//142
f 286//143 132//143 260//143
f 260//144 132//144 261//144
f 261//145 132//145 137//145
f 261//146 137//146 140//146
f 132//147 129//147 137//147
f 137//148 129//148 282//148
f 140//149 171//149 261//149
f 261//150 171//150 287//150
f 288//10 289//10 182//10
f 182//10 289//10 233//10
f 182//10 233//10 229//10
f 180//10 290//10 288//10
f 288//10 290//10 149//10
f 288//10 149//10 144//10
f 182//10 291//10 180//10
f 180//10 291//10 292//10
f 180//10 292//10 143//10
f 235//10 289//10 187//10
f 187//10 289//10 188//10
f 188//10 289//10 288//10
f 188//10 288//10 228//10
f 228//10 288//10 144//10
f 229//10 216//10 182//10
f 182//10 216//10 218//10
f 182//10 218//10 291//10
f 291//10 218//10 293//10
f 291//10 293//10 294//10
f 143//10 142//10 180//10
f 180//10 142//10 214//10
f 180//10 214//10 290//10
f 290//10 214//10 152//10
f 290//10 152//10 151//10
f 239//81 265//81 240//81
f 240//81 265//81 227//81
f 240//81 227//81 173//81
f 239//81 279//81 265//81
f 265//81 264//81 227//81
f 227//81 264//81 282//81
f 173//81 177//81 240//81
f 240//81 177//81 273//81
f 286//142 266//142 130//142
f 130//142 266//142 227//142
f 130//142 227//142 282//142
f 286//142 260//142 266//142
f 287//142 171//142 266//142
f 266//142 171//142 172//142
f 266//142 172//142 227//142
f 282//142 129//142 130//142
f 109//21 277//21 49//21
f 49//21 277//21 280//21
f 49//21 280//21 177//21
f 109//21 178//21 277//21
f 183//21 181//21 277//21
f 277//21 181//21 284//21
f 277//21 284//21 280//21
f 177//21 50//21 49//21
f 98//151 288//151 41//151
f 41//152 288//152 295//152
f 41//153 295//153 176//153
f 98//154 171//154 288//154
f 288//155 182//155 295//155
f 295//156 182//156 177//156
f 295//157 177//157 175//157
f 176//158 35//158 41//158
f 112//142 181//142 106//142
f 106//142 181//142 180//142
f 106//142 180//142 288//142
f 106//142 288//142 296//142
f 296//142 288//142 171//142
f 296//142 171//142 251//142
f 296//142 252//142 106//142
f 106//142 252//142 102//142
f 73//92 284//92 1//92
f 1//92 284//92 281//92
f 1//92 281//92 297//92
f 297//92 281//92 138//92
f 138//92 281//92 139//92
f 139//92 281//92 230//92
f 230//92 281//92 298//92
f 298//92 281//92 280//92
f 298//92 280//92 53//92
f 53//92 280//92 54//92
f 54//92 280//92 229//92
f 229//92 280//92 216//92
f 216//92 280//92 215//92
f 215//92 280//92 284//92
f 215//92 284//92 299//92
f 299//92 284//92 292//92
f 292//92 284//92 143//92
f 143//92 284//92 73//92
f 299//92 294//92 215//92
f 215//92 294//92 293//92
f 53//92 93//92 298//92
f 298//92 93//92 232//92
f 297//92 145//92 1//92
f 1//92 145//92 2//92
f 283//81 134//81 245//81
f 245//81 134//81 137//81
f 245//81 137//81 282//81
f 283//81 123//81 134//81
f 285//81 181//81 134//81
f 134//81 181//81 135//81
f 134//81 135//81 137//81
f 282//81 246//81 245//81
f 234//92 233//92 300//92
f 300//92 233//92 270//92
f 270//92 233//92 268//92
f 268//92 233//92 163//92
f 268//92 163//92 164//92
f 233//92 289//92 163//92
f 163//92 289//92 301//92
f 164//92 211//92 268//92
f 99//11 152//11 88//11
f 88//11 152//11 302//11
f 88//11 302//11 303//11
f 99//11 141//11 152//11
f 152//11 214//11 302//11
f 302//11 214//11 211//11
f 303//11 212//11 88//11
f 88//11 212//11 87//11
f 299//56 292//56 304//56
f 304//56 292//56 305//56
f 305//56 292//56 306//56
f 306//56 292//56 278//56
f 306//56 278//56 307//56
f 292//56 291//56 278//56
f 278//56 291//56 271//56
f 307//56 190//56 306//56
f 150//159 149//159 308//159
f 308//160 149//160 309//160
f 309//161 149//161 205//161
f 205//162 149//162 310//162
f 205//163 310//163 311//163
f 149//164 290//164 310//164
f 310//165 290//165 312//165
f 311//166 204//166 205//166
f 113//22 293//22 83//22
f 83//22 293//22 156//22
f 83//22 156//22 196//22
f 113//22 215//22 293//22
f 218//22 204//22 293//22
f 293//22 204//22 154//22
f 293//22 154//22 156//22
f 196//22 82//22 83//22
f 147//92 146//92 212//92
f 212//92 146//92 221//92
f 221//92 146//92 313//92
f 221//92 313//92 237//92
f 237//92 313//92 300//92
f 300//92 313//92 314//92
f 146//92 226//92 313//92
f 313//92 226//92 315//92
f 298//167 232//167 316//167
f 316//167 232//167 166//167
f 166//167 232//167 317//167
f 166//167 317//167 304//167
f 231//167 184//167 232//167
f 232//167 184//167 185//167
f 232//167 185//167 317//167
f 304//167 167//167 166//167
f 115//167 301//167 19//167
f 19//167 301//167 205//167
f 19//167 205//167 14//167
f 14//167 205//167 155//167
f 155//167 205//167 295//167
f 295//167 205//167 176//167
f 176//167 205//167 206//167
f 176//167 206//167 318//167
f 318//167 206//167 319//167
f 319//167 206//167 258//167
f 258//167 206//167 108//167
f 108//167 206//167 65//167
f 65//167 206//167 309//167
f 65//167 309//167 287//167
f 287//167 309//167 261//167
f 261//167 309//167 159//167
f 159//167 309//167 165//167
f 165//167 309//167 301//167
f 301//167 309//167 205//167
f 115//167 163//167 301//167
f 287//167 266//167 65//167
f 65//167 266//167 66//167
f 318//167 320//167 176//167
f 176//167 320//167 174//167
f 297//168 138//168 196//168
f 196//169 138//169 255//169
f 255//170 138//170 321//170
f 255//171 321//171 259//171
f 259//172 321//172 308//172
f 308//173 321//173 322//173
f 138//174 136//174 321//174
f 321//175 136//175 323//175
f 324//176 315//176 200//176
f 200//177 315//177 325//177
f 200//178 325//178 326//178
f 201//179 286//179 324//179
f 324//180 286//180 130//180
f 324//181 130//181 131//181
f 200//182 327//182 201//182
f 201//183 327//183 328//183
f 201//184 328//184 125//184
f 132//185 286//185 133//185
f 133//186 286//186 222//186
f 222//187 286//187 201//187
f 222//188 201//188 126//188
f 126//189 201//189 125//189
f 131//190 329//190 324//190
f 324//191 329//191 208//191
f 324//192 208//192 315//192
f 315//193 208//193 207//193
f 315//194 207//194 313//194
f 326//195 296//195 200//195
f 200//196 296//196 251//196
f 200//197 251//197 327//197
f 327//198 251//198 250//198
f 327//199 250//199 330//199
f 318//133 319//133 300//133
f 300//133 319//133 237//133
f 237//133 319//133 117//133
f 237//133 117//133 220//133
f 220//133 117//133 219//133
f 219//133 117//133 118//133
f 319//133 331//133 117//133
f 117//133 331//133 332//133
f 55//81 333//81 56//81
f 56//81 333//81 303//81
f 56//81 303//81 94//81
f 94//81 303//81 238//81
f 238//81 303//81 199//81
f 199//81 303//81 198//81
f 198//81 303//81 302//81
f 198//81 302//81 322//81
f 322//81 302//81 334//81
f 334//81 302//81 269//81
f 269//81 302//81 68//81
f 68//81 302//81 67//81
f 67//81 302//81 335//81
f 67//81 335//81 307//81
f 307//81 335//81 272//81
f 272//81 335//81 241//81
f 241//81 335//81 244//81
f 244//81 335//81 333//81
f 333//81 335//81 303//81
f 55//81 242//81 333//81
f 307//81 278//81 67//81
f 67//81 278//81 107//81
f 322//81 321//81 198//81
f 198//81 321//81 336//81
f 147//200 212//200 148//200
f 148//200 212//200 303//200
f 148//200 303//200 335//200
f 148//200 335//200 325//200
f 325//200 335//200 300//200
f 325//200 300//200 314//200
f 325//200 315//200 148//200
f 148//200 315//200 226//200
f 111//11 169//11 104//11
f 104//11 169//11 267//11
f 104//11 267//11 268//11
f 111//11 160//11 169//11
f 169//11 254//11 267//11
f 267//11 254//11 219//11
f 268//11 211//11 104//11
f 104//11 211//11 103//11
f 245//20 213//20 283//20
f 283//20 213//20 253//20
f 283//20 253//20 197//20
f 197//20 253//20 192//20
f 192//20 253//20 236//20
f 236//20 253//20 274//20
f 274//20 253//20 337//20
f 337//20 253//20 210//20
f 337//20 210//20 183//20
f 183//20 210//20 179//20
f 179//20 210//20 269//20
f 269//20 210//20 334//20
f 334//20 210//20 323//20
f 323//20 210//20 213//20
f 323//20 213//20 203//20
f 203//20 213//20 199//20
f 199//20 213//20 238//20
f 238//20 213//20 245//20
f 203//20 336//20 323//20
f 323//20 336//20 321//20
f 183//20 277//20 337//20
f 337//20 277//20 276//20
f 197//20 248//20 283//20
f 283//20 248//20 247//20
f 114//200 253//200 92//200
f 92//200 253//200 126//200
f 92//200 126//200 127//200
f 114//200 219//200 253//200
f 253//200 213//200 126//200
f 126//200 213//200 212//200
f 126//200 212//200 222//200
f 127//200 81//200 92//200
f 318//200 300//200 320//200
f 320//200 300//200 270//200
f 320//200 270//200 267//200
f 320//200 267//200 120//200
f 120//200 267//200 219//200
f 120//200 219//200 118//200
f 120//200 332//200 320//200
f 320//200 332//200 331//200
f 234//133 300//133 235//133
f 235//133 300//133 335//133
f 235//133 335//133 302//133
f 235//133 302//133 165//133
f 165//133 302//133 211//133
f 165//133 211//133 164//133
f 165//133 301//133 235//133
f 235//133 301//133 289//133
f 333//55 242//55 327//55
f 327//55 242//55 328//55
f 328//55 242//55 256//55
f 328//55 256//55 259//55
f 242//55 243//55 256//55
f 256//55 243//55 195//55
f 259//55 308//55 328//55
f 328//55 308//55 338//55
f 297//90 196//90 145//90
f 145//90 196//90 156//90
f 145//90 156//90 153//90
f 145//90 153//90 334//90
f 334//90 153//90 308//90
f 334//90 308//90 322//90
f 334//90 323//90 145//90
f 145//90 323//90 136//90
f 275//91 274//91 304//91
f 304//91 274//91 119//91
f 119//91 274//91 124//91
f 124//91 274//91 170//91
f 124//91 170//91 262//91
f 274//91 337//91 170//91
f 170//91 337//91 157//91
f 262//91 202//91 124//91
f 97//201 336//201 44//201
f 44//202 336//202 306//202
f 44//203 306//203 190//203
f 97//204 198//204 336//204
f 203//205 202//205 336//205
f 336//206 202//206 339//206
f 336//207 339//207 306//207
f 190//208 43//208 44//208
f 72//142 332//142 10//142
f 10//142 332//142 185//142
f 10//142 185//142 4//142
f 4//142 185//142 131//142
f 131//142 185//142 329//142
f 329//142 185//142 209//142
f 209//142 185//142 186//142
f 209//142 186//142 314//142
f 314//142 186//142 325//142
f 325//142 186//142 326//142
f 326//142 186//142 62//142
f 62//142 186//142 61//142
f 61//142 186//142 317//142
f 61//142 317//142 311//142
f 311//142 317//142 340//142
f 340//142 317//142 121//142
f 121//142 317//142 120//142
f 120//142 317//142 332//142
f 332//142 317//142 185//142
f 72//142 117//142 332//142
f 311//142 310//142 61//142
f 61//142 310//142 95//142
f 314//142 313//142 209//142
f 209//142 313//142 207//142
f 333//90 330//90 244//90
f 244//90 330//90 206//90
f 244//90 206//90 195//90
f 333//90 327//90 330//90
f 338//90 308//90 330//90
f 330//90 308//90 309//90
f 330//90 309//90 206//90
f 195//90 243//90 244//90
f 150//55 153//55 151//55
f 151//55 153//55 340//55
f 151//55 340//55 312//55
f 150//55 308//55 153//55
f 153//55 154//55 340//55
f 340//55 154//55 204//55
f 340//55 204//55 311//55
f 312//55 290//55 151//55
f 263//9 194//9 279//9
f 279//9 194//9 193//9
f 279//9 193//9 224//9
f 224//9 193//9 257//9
f 257//9 193//9 258//9
f 258//9 193//9 319//9
f 319//9 193//9 331//9
f 331//9 193//9 217//9
f 331//9 217//9 175//9
f 175//9 217//9 295//9
f 295//9 217//9 155//9
f 155//9 217//9 166//9
f 166//9 217//9 316//9
f 316//9 217//9 194//9
f 316//9 194//9 254//9
f 254//9 194//9 161//9
f 161//9 194//9 162//9
f 162//9 194//9 263//9
f 254//9 169//9 316//9
f 316//9 169//9 168//9
f 175//9 174//9 331//9
f 331//9 174//9 320//9
f 224//9 223//9 279//9
f 279//9 223//9 265//9
f 110//55 217//55 52//55
f 52//55 217//55 329//55
f 52//55 329//55 209//55
f 110//55 204//55 217//55
f 217//55 193//55 329//55
f 329//55 193//55 195//55
f 329//55 195//55 208//55
f 209//55 38//55 52//55
f 78//22 248//22 45//22
f 45//22 248//22 256//22
f 45//22 256//22 195//22
f 78//22 191//22 248//22
f 197//22 196//22 248//22
f 248//22 196//22 255//22
f 248//22 255//22 256//22
f 195//22 46//22 45//22
f 275//167 305//167 276//167
f 276//167 305//167 158//167
f 276//167 158//167 157//167
f 275//167 304//167 305//167
f 305//167 339//167 158//167
f 158//167 339//167 202//167
f 158//167 202//167 262//167
f 157//167 337//167 276//167
f 298//56 168//56 230//56
f 230//56 168//56 128//56
f 230//56 128//56 184//56
f 298//56 316//56 168//56
f 167//56 304//56 168//56
f 168//56 304//56 119//56
f 168//56 119//56 128//56
f 184//56 231//56 230//56
f 116//200 339//200 11//200
f 11//200 339//200 305//200
f 11//200 305//200 285//200
f 285//200 305//200 122//200
f 122//200 305//200 121//200
f 121//200 305//200 340//200
f 340//200 305//200 312//200
f 312//200 305//200 306//200
f 312//200 306//200 64//200
f 64//200 306//200 62//200
f 62//200 306//200 326//200
f 326//200 306//200 296//200
f 296//200 306//200 252//200
f 252//200 306//200 339//200
f 252//200 339//200 338//200
f 338//200 339//200 328//200
f 328//200 339//200 125//200
f 125//200 339//200 116//200
f 338//200 330//200 252//200
f 252//200 330//200 250//200
f 64//200 95//200 312//200
f 312//200 95//200 310//200
f 285//200 134//200 11//200
f 11//200 134//200 12//200
f 100//167 202//167 90//167
f 90//167 202//167 201//167
f 90//167 201//167 324//167
f 90//167 324//167 257//167
f 257//167 324//167 184//167
f 257//167 184//167 224//167
f 257//167 225//167 90//167
f 90//167 225//167 86//167
f 299//91 317//91 294//91
f 294//91 317//91 272//91
f 294//91 272//91 271//91
f 299//91 304//91 317//91
f 317//91 186//91 272//91
f 272//91 186//91 190//91
f 272//91 190//91 307//91
f 271//91 291//91 294//91
f 79//56 184//56 48//56
f 48//56 184//56 324//56
f 48//56 324//56 200//56
f 48//56 200//56 228//56
f 228//56 200//56 190//56
f 228//56 190//56 188//56
f 228//56 189//56 48//56
f 48//56 189//56 30//56
usemtl mat1
f 1//1 2//1 3//1
# Vertices: 340, normals: 208, texture coordinates: 0, faces: 960

